<?xml version="1.0" encoding="utf-8"?>
<!-- Generated by IcoMoon.io -->
<!DOCTYPE svg PUBLIC "-//W3C//DTD SVG 1.1//EN" "http://www.w3.org/Graphics/SVG/1.1/DTD/svg11.dtd">
<svg version="1.1" xmlns="http://www.w3.org/2000/svg" xmlns:xlink="http://www.w3.org/1999/xlink" width="32" height="32" viewBox="0 0 32 32">
<path fill="#444444" d="M28.371 24.512l-10.771-18.662c-0.88-1.523-2.32-1.523-3.2 0.003l-10.771 18.659c-0.88 1.523-0.16 2.781 1.6 2.781h21.539c1.763-0.003 2.483-1.254 1.603-2.781zM17.28 24.656c-0.374 0.368-0.832 0.55-1.37 0.55-0.522 0-0.97-0.182-1.344-0.55s-0.563-0.813-0.563-1.334c0-0.275 0.048-0.528 0.15-0.758 0.099-0.23 0.237-0.432 0.413-0.608s0.381-0.314 0.608-0.413c0.23-0.099 0.474-0.15 0.736-0.15 0.259 0 0.509 0.051 0.749 0.15 0.237 0.099 0.445 0.237 0.621 0.413s0.314 0.381 0.413 0.608c0.099 0.23 0.15 0.483 0.15 0.758 0 0.522-0.189 0.966-0.563 1.334zM17.216 18.333c-0.032 0.262-0.141 0.486-0.333 0.678s-0.502 0.288-0.931 0.288c-0.323 0-0.714-0.070-1.171-0.208l-0.758-7.242c-0.061-0.55 0.064-1.002 0.381-1.344 0.314-0.346 0.886-0.518 1.712-0.518 0.352 0 0.698 0.016 1.034 0.045 0.336 0.032 0.621 0.077 0.851 0.138l-0.784 8.163z"></path>
</svg>
