<?xml version="1.0" encoding="UTF-8" standalone="no"?>
<svg width="12px" height="20px" viewBox="0 0 12 20" version="1.1" xmlns="http://www.w3.org/2000/svg" xmlns:xlink="http://www.w3.org/1999/xlink" xmlns:sketch="http://www.bohemiancoding.com/sketch/ns">
    <!-- Generator: Sketch 3.4.4 (17249) - http://www.bohemiancoding.com/sketch -->
    <title>Chevron</title>
    <desc>Created with Sketch.</desc>
    <defs></defs>
    <g id="Nav-Level-2" stroke="none" stroke-width="1" fill="none" fill-rule="evenodd" sketch:type="MSPage">
        <g id="Broadband" sketch:type="MSArtboardGroup" transform="translate(-20.000000, -15.000000)" fill="#4A4A4A">
            <path d="M15.6016799,20.6305922 C15.6088172,20.8045639 15.6784059,20.9544472 15.8211519,21.0998697 L15.9888785,21.2711649 L24.9676029,30.2507815 C25.1362216,30.418508 25.3601544,30.511293 25.5983618,30.511293 C25.8365692,30.511293 26.060502,30.418508 26.2291208,30.2507815 L35.2711887,21.2078214 L35.3809247,21.096301 C35.5245629,20.9499864 35.5941516,20.8001031 35.6012889,20.6234549 C35.607534,20.4691107 35.4638959,20.2326876 35.2078452,19.976637 C35.0401186,19.8098026 34.8634704,19.6483211 34.6814693,19.4975457 C34.635969,19.4600748 34.5949295,19.427957 34.5574587,19.3985156 L34.1158382,19.8410283 L25.9141874,28.042679 L25.5983618,28.3576124 L25.2834284,28.042679 L17.0773168,19.8365674 L16.6455101,19.4047607 C16.6080393,19.4342021 16.5661077,19.4672121 16.5206074,19.504683 C16.3394984,19.6545663 16.1628502,19.8160477 15.9960158,19.9828821 C15.7390729,20.2389328 15.5954347,20.4753559 15.6016799,20.6305922" id="Chevron" sketch:type="MSShapeGroup" transform="translate(25.601484, 24.954904) rotate(-90.000000) translate(-25.601484, -24.954904) "></path>
        </g>
    </g>
</svg>