<?xml version="1.0" encoding="utf-8"?>
<!DOCTYPE svg PUBLIC "-//W3C//DTD SVG 1.1//EN" "http://www.w3.org/Graphics/SVG/1.1/DTD/svg11.dtd">
<svg version="1.1" xmlns="http://www.w3.org/2000/svg" xmlns:xlink="http://www.w3.org/1999/xlink" width="24" height="24" viewBox="0 0 24 24">
<path fill="#444444" d="M11.25 1.5c-6.213 0-11.25 5.037-11.25 11.25s5.037 11.25 11.25 11.25c6.213 0 11.25-5.037 11.25-11.25s-5.037-11.25-11.25-11.25zM11.25 21.75c-4.971 0-9-4.029-9-9s4.029-9 9-9c4.97 0 9 4.029 9 9s-4.030 9-9 9z"></path>
<path fill="#444444" d="M14.25 16.5h-5.25v-3h2.25c0.414 0 0.75-0.336 0.75-0.75s-0.336-0.75-0.75-0.75h-2.25v-0.75c0-1.241 1.009-2.25 2.25-2.25 0.801 0 1.548 0.431 1.95 1.126 0.207 0.359 0.666 0.481 1.025 0.274s0.481-0.666 0.274-1.025c-0.669-1.156-1.913-1.875-3.248-1.875-2.068 0-3.75 1.682-3.75 3.75v0.75h-0.75c-0.414 0-0.75 0.336-0.75 0.75s0.336 0.75 0.75 0.75h0.75v4.5h6.75c0.414 0 0.75-0.336 0.75-0.75s-0.336-0.75-0.75-0.75z"></path>
</svg>
