<?xml version="1.0" encoding="utf-8"?>
<!DOCTYPE svg PUBLIC "-//W3C//DTD SVG 1.1//EN" "http://www.w3.org/Graphics/SVG/1.1/DTD/svg11.dtd">
<svg version="1.1" xmlns="http://www.w3.org/2000/svg" xmlns:xlink="http://www.w3.org/1999/xlink" width="24" height="24" viewBox="0 0 24 24">
<path fill="#444444" d="M17.086 12c3.229-2.047 5.414-5.981 5.414-10.5 0-0.508-0.028-1.009-0.082-1.5h-20.837c-0.054 0.491-0.082 0.992-0.082 1.5 0 4.519 2.186 8.453 5.414 10.5-3.229 2.047-5.414 5.981-5.414 10.5 0 0.508 0.028 1.009 0.082 1.5h20.837c0.054-0.491 0.082-0.992 0.082-1.5 0-4.519-2.186-8.453-5.414-10.5zM3.75 22.5c0-4.381 1.879-8.096 5.25-9.321v-2.357c-3.371-1.226-5.25-4.94-5.25-9.321v0h16.5c0 4.381-1.879 8.096-5.25 9.321v2.357c3.371 1.226 5.25 4.941 5.25 9.321h-16.5zM14.522 15.694c-1.679-0.953-1.772-2.188-1.772-2.938v-1.505c0-0.75 0.089-1.99 1.775-2.945 0.902-0.524 1.683-1.321 2.275-2.305h-9.6c0.592 0.985 1.374 1.782 2.277 2.306 1.679 0.953 1.772 2.188 1.772 2.938v1.505c0 0.75-0.089 1.99-1.775 2.945-1.702 0.989-2.97 2.946-3.354 5.305h11.758c-0.384-2.36-1.653-4.318-3.357-5.306z"></path>
</svg>
