<?xml version="1.0" encoding="utf-8"?>
<!-- Generated by IcoMoon.io -->
<!DOCTYPE svg PUBLIC "-//W3C//DTD SVG 1.1//EN" "http://www.w3.org/Graphics/SVG/1.1/DTD/svg11.dtd">
<svg version="1.1" xmlns="http://www.w3.org/2000/svg" xmlns:xlink="http://www.w3.org/1999/xlink" width="32" height="32" viewBox="0 0 32 32">
<path fill="#444444" d="M16.003 30.378c0.003 0 0.006 0 0.006 0s0-0.003-0.003-0.006c-0.006 0.003-0.006 0.006-0.003 0.006v0c-0.003 0 0 0 0 0z"></path>
<path fill="#444444" d="M24 9.408c-0.019-4.416-3.584-7.965-8-7.984v0c0 0-0.010 0-0.016 0s0.016 0-0.016 0v0c-4.384 0.019-7.933 3.568-7.952 7.984v0c0 0 0 0.003 0 0.010s0 0.006 0 0.010c0 0.461 0.032 0.912 0.106 1.35 0.944 6.368 7.43 18.717 7.846 19.555v0.058c0.032-0.003 0.013-0.003 0.016-0.006 0.003 0 0.016 0.003 0.016 0.006v-0.042c0.384-0.688 6.925-13.162 7.872-19.568 0.074-0.438 0.122-0.893 0.122-1.354 0-0.006 0.003-0.003 0.003-0.006 0-0.010 0.003-0.013 0.003-0.013v0zM15.987 14.179c-2.65 0-4.8-2.15-4.8-4.8s2.15-4.8 4.8-4.8 4.8 2.15 4.8 4.8-2.15 4.8-4.8 4.8z"></path>
</svg>
