<?xml version="1.0" encoding="utf-8"?>
<!-- Generated by IcoMoon.io -->
<!DOCTYPE svg PUBLIC "-//W3C//DTD SVG 1.1//EN" "http://www.w3.org/Graphics/SVG/1.1/DTD/svg11.dtd">
<svg version="1.1" xmlns="http://www.w3.org/2000/svg" xmlns:xlink="http://www.w3.org/1999/xlink" width="32" height="32" viewBox="0 0 32 32">
<path fill="#444444" d="M12.995 12.003c0 1.113-0.903 2.016-2.016 2.016s-2.016-0.903-2.016-2.016c0-1.113 0.903-2.016 2.016-2.016s2.016 0.903 2.016 2.016z"></path>
<path fill="#444444" d="M18.016 12.064c0 1.113-0.903 2.016-2.016 2.016s-2.016-0.903-2.016-2.016c0-1.113 0.903-2.016 2.016-2.016s2.016 0.903 2.016 2.016z"></path>
<path fill="#444444" d="M23.075 12.003c0 1.113-0.903 2.016-2.016 2.016s-2.016-0.903-2.016-2.016c0-1.113 0.903-2.016 2.016-2.016s2.016 0.903 2.016 2.016z"></path>
<path fill="#444444" d="M24.688 3.232h-17.152c-3.395 0-6.288 2.742-6.288 6.141v5.283c0 3.395 2.893 6.176 6.288 6.176h8.304v7.936l8.086-7.936h0.762c3.395 0 6.032-2.781 6.032-6.176v-5.283c0-3.398-2.637-6.141-6.032-6.141zM26.72 14.656c0 0.573-0.163 1.123-0.573 1.533s-0.886 0.643-1.459 0.643h-17.152c-0.573 0-1.178-0.234-1.587-0.643-0.41-0.413-0.701-0.96-0.701-1.533v-5.283c0-0.573 0.291-1.104 0.701-1.514s1.014-0.627 1.587-0.627h17.152c0.573 0 1.050 0.218 1.459 0.627s0.573 0.941 0.573 1.514v5.283z"></path>
</svg>
