<?xml version="1.0" encoding="utf-8"?>
<!-- Generated by IcoMoon.io -->
<!DOCTYPE svg PUBLIC "-//W3C//DTD SVG 1.1//EN" "http://www.w3.org/Graphics/SVG/1.1/DTD/svg11.dtd">
<svg version="1.1" xmlns="http://www.w3.org/2000/svg" xmlns:xlink="http://www.w3.org/1999/xlink" width="32" height="32" viewBox="0 0 32 32">
<path fill="#444444" d="M16.774 21.165c-2.336 0-4.134-0.592-4.211-0.618l-0.173-0.058-6.083-5.923 13.472-2.387 5.939 5.13-0.586 0.608c-0.061 0.064-1.536 1.571-4.509 2.627-1.168 0.413-2.461 0.621-3.85 0.621zM13.238 19.078c0.464 0.131 1.853 0.486 3.539 0.486 1.206 0 2.32-0.179 3.312-0.531 1.542-0.547 2.614-1.219 3.235-1.68l-4.016-3.466-9.648 1.712 3.578 3.478z"></path>
<path fill="#444444" d="M7.37 24.48c-0.525 0-0.938-0.416-0.986-0.464l-0.112-0.115v-9.373h0.8v9.027c0.099 0.070 0.224 0.134 0.314 0.125 0.045-0.003 0.090-0.029 0.134-0.077v-9.299h0.8v9.555l-0.067 0.099c-0.259 0.39-0.579 0.496-0.797 0.515-0.029 0.003-0.058 0.006-0.086 0.006z"></path>
<path fill="#444444" d="M19.040 20.918v0.602c-0.045 0.048-0.090 0.074-0.134 0.077-0.093 0.010-0.214-0.054-0.314-0.125v-0.454c-0.262 0.048-0.528 0.077-0.8 0.070v0.73l0.112 0.115c0.048 0.051 0.461 0.464 0.986 0.464 0.029 0 0.058 0 0.086-0.003 0.221-0.019 0.538-0.125 0.797-0.515l0.067-0.099v-1.014c-0.269 0.070-0.534 0.086-0.8 0.154z"></path>
<path fill="#444444" d="M12.592 29.85c-0.522 0-0.922-0.422-0.97-0.47l-0.106-0.115v-9.584h0.8v9.248c0.090 0.067 0.202 0.128 0.285 0.118 0.042-0.003 0.086-0.029 0.131-0.077v-9.29h0.8v9.549l-0.067 0.099c-0.266 0.397-0.582 0.499-0.803 0.518-0.019 0-0.045 0.003-0.070 0.003z"></path>
<path fill="#444444" d="M24.774 27.501c-0.525 0-0.938-0.416-0.982-0.467l-0.109-0.115v-8.966h0.8v8.624c0.096 0.070 0.218 0.131 0.31 0.125 0.045-0.003 0.093-0.032 0.138-0.080v-9.309h0.8v9.568l-0.067 0.102c-0.266 0.394-0.586 0.496-0.806 0.515-0.032 0-0.058 0.003-0.083 0.003z"></path>
<path fill="#444444" d="M7.84 14.528h-1.6v-7.872l0.003-0.035c0.010-0.112 0.115-1.133 0.925-2.227 0.474-0.64 1.091-1.178 1.837-1.597 0.899-0.506 1.987-0.832 3.232-0.976 2.803-0.323 4.682 0.538 5.766 1.318 1.178 0.848 1.69 1.77 1.744 1.872l0.093 0.176v7.229h-1.6v-6.8c-0.17-0.246-0.566-0.755-1.235-1.222-1.232-0.861-2.774-1.19-4.586-0.979-4.051 0.467-4.534 3.008-4.579 3.325v7.789z"></path>
</svg>
