<?xml version="1.0" encoding="utf-8"?>
<!DOCTYPE svg PUBLIC "-//W3C//DTD SVG 1.1//EN" "http://www.w3.org/Graphics/SVG/1.1/DTD/svg11.dtd">
<svg version="1.1" xmlns="http://www.w3.org/2000/svg" xmlns:xlink="http://www.w3.org/1999/xlink" width="24" height="24" viewBox="0 0 24 24">
<path fill="#444444" d="M10.5 7.5l-3 3 6 6 3-3zM0.527 6.973l1.723-1.723 0.75 0.75c0.384 0.384 0.914 0.621 1.5 0.621 1.172 0 2.121-0.95 2.121-2.121 0-0.586-0.238-1.117-0.622-1.5l-0.75-0.75 1.723-1.723c0.702-0.702 1.852-0.702 2.554 0l13.946 13.946c0.702 0.702 0.702 1.852 0 2.554l-1.723 1.723-0.749-0.749c-0.384-0.385-0.915-0.622-1.501-0.622-1.172 0-2.121 0.95-2.121 2.121 0 0.586 0.238 1.117 0.622 1.501l0.75 0.75-1.723 1.723c-0.702 0.702-1.852 0.702-2.554 0l-13.946-13.946c-0.702-0.703-0.702-1.852 0-2.554zM13.5 19.5l6-6-9-9-6 6 9 9z"></path>
</svg>
